<svg xmlns="http://www.w3.org/2000/svg" viewBox="0 0 849.33 864.73">
  <defs>
    <style>
      .cls-1 {
        fill: #d9d9d9;
      }
    </style>
  </defs>
  <g id="Layer_5" data-name="Layer 5">
    <g>
      <ellipse class="cls-1" cx="430.22" cy="433.78" rx="231.75" ry="235.96"/>
      <path class="cls-1" d="M592,322.42h13.88c18.31,0,33.3-15.26,33.3-33.91v-87.6c0-18.65-15-33.91-33.3-33.91H592c-18.32,0-33.31,15.26-33.31,33.91v87.6C558.68,307.16,573.67,322.42,592,322.42Z" transform="translate(-171.48 -167)"/>
      <path class="cls-1" d="M605.87,876.3H592c-18.32,0-33.31,15.26-33.31,33.91v87.61c0,18.65,15,33.91,33.31,33.91h13.88c18.31,0,33.3-15.26,33.3-33.91V910.21C639.17,891.56,624.18,876.3,605.87,876.3Z" transform="translate(-171.48 -167)"/>
      <path class="cls-1" d="M324.14,594.52l0-14.13c0-18.65-14.92-33.95-33.24-34l-86-.19c-18.31,0-33.33,15.19-33.37,33.84l0,14.13c0,18.65,14.92,33.94,33.24,34l86,.2C309.08,628.4,324.1,613.17,324.14,594.52Z" transform="translate(-171.48 -167)"/>
      <path class="cls-1" d="M987.59,548l-86.05-.2c-18.31,0-33.33,15.19-33.37,33.84l0,14.13c0,18.65,14.91,33.94,33.23,34l86,.19c18.32,0,33.34-15.19,33.38-33.84l0-14.13C1020.86,563.29,1005.9,548,987.59,548Z" transform="translate(-171.48 -167)"/>
      <path class="cls-1" d="M799.89,414.75a33,33,0,0,0,47.1.46l61.41-61.35a34.45,34.45,0,0,0,.45-48l-9.72-10.08a33,33,0,0,0-47.1-.46l-61.42,61.35a34.46,34.46,0,0,0-.44,48Z" transform="translate(-171.48 -167)"/>
      <path class="cls-1" d="M401.86,792.57a33,33,0,0,0-47.1-.45l-61.42,61.35a34.44,34.44,0,0,0-.45,47.95l9.72,10.09a33,33,0,0,0,47.1.45l61.42-61.35a34.46,34.46,0,0,0,.45-48Z" transform="translate(-171.48 -167)"/>
      <path class="cls-1" d="M364.72,400a33,33,0,0,0,47.1.56l9.93-9.87a34.46,34.46,0,0,0,.55-48l-60.12-62.66a33,33,0,0,0-47.1-.56l-9.93,9.87a34.45,34.45,0,0,0-.55,47.95Z" transform="translate(-171.48 -167)"/>
      <path class="cls-1" d="M849,787.46a33,33,0,0,0-47.1-.56L792,796.77a34.44,34.44,0,0,0-.56,48l60.13,62.67a33,33,0,0,0,47.1.56l9.92-9.87a34.45,34.45,0,0,0,.56-48Z" transform="translate(-171.48 -167)"/>
    </g>
  </g>
</svg>
