<?xml version="1.0" encoding="utf-8"?>
<!-- Generator: Adobe Illustrator 26.5.2, SVG Export Plug-In . SVG Version: 6.00 Build 0)  -->
<svg version="1.1" id="visual" xmlns="http://www.w3.org/2000/svg" xmlns:xlink="http://www.w3.org/1999/xlink" x="0px" y="0px"
	 viewBox="0 0 1800 900" style="enable-background:new 0 0 1800 900;" xml:space="preserve">
<style type="text/css">
	.st0{fill:#3A3A3A;}
	.st1{fill:#3F3F3F;}
	.st2{fill:#424242;}
	.st3{fill:#444444;}
	.st4{fill:#4C4C4C;}
</style>
<rect y="0" class="st0" width="1800" height="900"/>
<g transform="translate(1800, 0)">
	<path class="st1" d="M0,585c-56.5,6-113,12-151.4-19.9c-38.4-31.9-58.8-101.8-99.1-131.2c-40.3-29.5-100.6-18.6-145.5-37.9
		s-74.4-68.9-85.5-118s-3.7-97.9-17.9-144.2S-549.3,43.8-585,0H0V585z"/>
	<path class="st2" d="M0,438.8c-42.4,4.4-84.7,8.9-113.6-15c-28.8-23.9-44-76.3-74.3-98.4c-30.2-22.1-75.4-13.9-109.1-28.4
		s-55.8-51.6-64.1-88.5c-8.3-36.9-2.8-73.4-13.4-108.1C-385.2,65.7-412,32.8-438.7,0H0V438.8z"/>
	<path class="st3" d="M0,292.5c-28.2,3-56.5,6-75.7-10c-19.2-15.9-29.4-50.8-49.5-65.6c-20.2-14.7-50.3-9.3-72.8-18.9
		c-22.4-9.7-37.2-34.4-42.8-59c-5.5-24.6-1.8-49-8.9-72.1s-24.9-45-42.8-66.9H0V292.5z"/>
	<path class="st4" d="M0,146.3c-14.1,1.4-28.2,2.9-37.9-5c-9.6-8-14.6-25.5-24.7-32.8c-10.1-7.4-25.2-4.7-36.4-9.5
		s-18.6-17.2-21.4-29.5c-2.7-12.3-0.9-24.5-4.4-36c-3.6-11.6-12.5-22.6-21.4-33.5H0V146.3z"/>
</g>
<g transform="translate(0, 900)">
	<path class="st1" d="M0-585c56.2-5.1,112.5-10.2,151.4,19.9c39,30.1,60.6,95.4,103.1,124.3c42.5,28.8,105.8,21.3,137.9,48.4
		c32.2,27,33.1,88.8,55.3,133.9C470-213.4,513.5-185,540-144.7c26.4,40.3,35.7,92.5,45,144.7H0V-585z"/>
	<path class="st2" d="M0-438.7c42.2-3.9,84.3-7.7,113.6,14.9c29.2,22.6,45.4,71.6,77.3,93.2c31.8,21.6,79.3,15.9,103.4,36.3
		c24.1,20.3,24.8,66.6,41.5,100.4c16.7,33.8,49.3,55.2,69.2,85.4C424.8-78.3,431.8-39.1,438.8,0H0V-438.7z"/>
	<path class="st3" d="M0-292.5c28.1-2.5,56.2-5.1,75.7,10c19.5,15,30.3,47.7,51.5,62.1c21.3,14.4,53,10.6,69,24.2
		c16.1,13.5,16.5,44.4,27.7,66.9c11.1,22.6,32.9,36.8,46.1,57c13.2,20.1,17.8,46.2,22.5,72.3H0V-292.5z"/>
	<path class="st4" d="M0-146.2c14.1-1.3,28.1-2.6,37.9,4.9c9.7,7.6,15.1,23.9,25.7,31.1c10.6,7.2,26.5,5.3,34.5,12.1
		c8,6.8,8.3,22.2,13.8,33.5c5.6,11.2,16.5,18.4,23.1,28.4c6.6,10.1,8.9,23.2,11.3,36.2H0V-146.2z"/>
</g>
</svg>
