<svg
  id="visual"
  viewBox="0 0 1800 900"
  width="1800"
  height="900"
  xmlns="http://www.w3.org/2000/svg"
  xmlns:xlink="http://www.w3.org/1999/xlink"
  version="1.1"
>
  <rect x="0" y="0" width="1800" height="900" fill="#2d2d2d"></rect>
  <!-- Dark mode gradients -->
  <defs>
    <linearGradient id="grad1_0" x1="50%" y1="0%" x2="100%" y2="100%">
      <stop offset="10%" stop-color="#333" stop-opacity="1"></stop>
      <stop offset="90%" stop-color="#333" stop-opacity="1"></stop>
    </linearGradient>
    <linearGradient id="grad1_1" x1="50%" y1="0%" x2="100%" y2="100%">
      <stop offset="10%" stop-color="#333" stop-opacity="1"></stop>
      <stop offset="90%" stop-color="#444" stop-opacity="1"></stop>
    </linearGradient>
    <linearGradient id="grad1_2" x1="50%" y1="0%" x2="100%" y2="100%">
      <stop offset="10%" stop-color="#555" stop-opacity="1"></stop>
      <stop offset="90%" stop-color="#444" stop-opacity="1"></stop>
    </linearGradient>
    <linearGradient id="grad1_3" x1="50%" y1="0%" x2="100%" y2="100%">
      <stop offset="10%" stop-color="#555" stop-opacity="1"></stop>
      <stop offset="90%" stop-color="#666" stop-opacity="1"></stop>
    </linearGradient>
    <linearGradient id="grad2_0" x1="0%" y1="0%" x2="50%" y2="100%">
      <stop offset="10%" stop-color="#333" stop-opacity="1"></stop>
      <stop offset="90%" stop-color="#333" stop-opacity="1"></stop>
    </linearGradient>
    <linearGradient id="grad2_1" x1="0%" y1="0%" x2="50%" y2="100%">
      <stop offset="10%" stop-color="#444" stop-opacity="1"></stop>
      <stop offset="90%" stop-color="#333" stop-opacity="1"></stop>
    </linearGradient>
    <linearGradient id="grad2_2" x1="0%" y1="0%" x2="50%" y2="100%">
      <stop offset="10%" stop-color="#444" stop-opacity="1"></stop>
      <stop offset="90%" stop-color="#555" stop-opacity="1"></stop>
    </linearGradient>
    <linearGradient id="grad2_3" x1="0%" y1="0%" x2="50%" y2="100%">
      <stop offset="10%" stop-color="#666" stop-opacity="1"></stop>
      <stop offset="90%" stop-color="#555" stop-opacity="1"></stop>
    </linearGradient>
  </defs>
  <!-- Dark mode paths -->
  <g transform="translate(1800, 0)">
    <path
      d="M0 585C-56.5 591 -113 597 -151.4 565.1C-189.8 533.2 -210.2 463.3 -250.5 433.9C-290.8 404.4 -351.1 415.3 -396 396C-440.9 376.7 -470.4 327.1 -481.5 278C-492.6 228.9 -485.2 180.1 -499.4 133.8C-513.6 87.5 -549.3 43.8 -585 0L0 0Z"
      fill="#333"
    ></path>
    <path
      d="M0 438.8C-42.4 443.2 -84.7 447.7 -113.6 423.8C-142.4 399.9 -157.6 347.5 -187.9 325.4C-218.1 303.3 -263.3 311.5 -297 297C-330.7 282.5 -352.8 245.4 -361.1 208.5C-369.4 171.6 -363.9 135.1 -374.5 100.4C-385.2 65.7 -412 32.8 -438.7 0L0 0Z"
      fill="#444"
    ></path>
    <path
      d="M0 292.5C-28.2 295.5 -56.5 298.5 -75.7 282.5C-94.9 266.6 -105.1 231.7 -125.2 216.9C-145.4 202.2 -175.5 207.6 -198 198C-220.4 188.3 -235.2 163.6 -240.8 139C-246.3 114.4 -242.6 90 -249.7 66.9C-256.8 43.8 -274.6 21.9 -292.5 0L0 0Z"
      fill="#555"
    ></path>
    <path
      d="M0 146.3C-14.1 147.7 -28.2 149.2 -37.9 141.3C-47.5 133.3 -52.5 115.8 -62.6 108.5C-72.7 101.1 -87.8 103.8 -99 99C-110.2 94.2 -117.6 81.8 -120.4 69.5C-123.1 57.2 -121.3 45 -124.8 33.5C-128.4 21.9 -137.3 10.9 -146.2 0L0 0Z"
      fill="#666"
    ></path>
  </g>
  <g transform="translate(0, 900)">
    <path
      d="M0 -585C56.2 -590.1 112.5 -595.2 151.4 -565.1C190.4 -535 212 -469.7 254.5 -440.8C297 -412 360.3 -419.5 392.4 -392.4C424.6 -365.4 425.5 -303.6 447.7 -258.5C470 -213.4 513.5 -185 540 -144.7C566.4 -104.4 575.7 -52.2 585 0L0 0Z"
      fill="#333"
    ></path>
    <path
      d="M0 -438.7C42.2 -442.6 84.3 -446.4 113.6 -423.8C142.8 -401.2 159 -352.2 190.9 -330.6C222.7 -309 270.2 -314.7 294.3 -294.3C318.4 -274 319.1 -227.7 335.8 -193.9C352.5 -160.1 385.1 -138.7 405 -108.5C424.8 -78.3 431.8 -39.1 438.8 0L0 0Z"
      fill="#444"
    ></path>
    <path
      d="M0 -292.5C28.1 -295 56.2 -297.6 75.7 -282.5C95.2 -267.5 106 -234.8 127.2 -220.4C148.5 -206 180.2 -209.8 196.2 -196.2C212.3 -182.7 212.7 -151.8 223.9 -129.3C235 -106.7 256.8 -92.5 270 -72.3C283.2 -52.2 287.8 -26.1 292.5 0L0 0Z"
      fill="#555"
    ></path>
    <path
      d="M0 -146.2C14.1 -147.5 28.1 -148.8 37.9 -141.3C47.6 -133.7 53 -117.4 63.6 -110.2C74.2 -103 90.1 -104.9 98.1 -98.1C106.1 -91.3 106.4 -75.9 111.9 -64.6C117.5 -53.4 128.4 -46.2 135 -36.2C141.6 -26.1 143.9 -13 146.3 0L0 0Z"
      fill="#666"
    ></path>
  </g>
</svg>
