<?xml version="1.0" encoding="UTF-8"?><svg id="Layer_2" xmlns="http://www.w3.org/2000/svg" viewBox="0 0 530.58 80.3"><defs><style>.cls-1{fill:#134e4a;}</style></defs><g id="Layer_1-2"><g><path class="cls-1" d="M345.39,80.15c-7.57-.47-16.18,.81-24.68-1.47-17.35-4.64-29.83-22.86-27.71-42.45,1.95-18.1,17.58-33.32,35.76-34.31,6.22-.34,12.48-.26,18.71-.07,12.79,.38,21.68,8.29,22.95,20.99,1.31,13.11-3.93,23.08-16.45,26.99-2.22,.69-4.66,.94-7,.98-7.23,.12-14.47-.01-21.71,.09-2.3,.03-3.42-.52-3.33-3.1,.17-4.47,.14-8.95-.02-13.42-.09-2.46,.83-3.21,3.23-3.16,6.86,.12,13.72,.09,20.58,.03,4.87-.04,7.01-3.57,4.98-8.02-.58-1.27-1.49-1.97-2.89-1.96-6.48,.05-12.99-.61-19.43,.34-9.16,1.36-15.69,9.22-15.94,18.82-.25,9.48,6.02,17.74,15.01,19.61,2.06,.43,4.2,.59,6.31,.6,10.35,.06,20.71,.08,31.06-.04,2.43-.03,3.27,.69,3.17,3.15-.17,4.34-.19,8.71,0,13.05,.11,2.54-.59,3.49-3.28,3.41-6.11-.18-12.22-.06-19.33-.06Z"/><path class="cls-1" d="M376.82,55.49c.53-7.47-.99-16.58,1.12-25.56,3.69-15.7,15.24-26.67,31.08-29.47,8.47-1.49,16.17,.79,23.29,5.04,8,4.77,13.35,11.82,16.3,20.63,1.55,4.63,2.23,9.41,2.22,14.3-.02,12.06-.07,24.12,.06,36.18,.03,2.7-.6,3.79-3.53,3.62-4.23-.25-8.49-.22-12.72,0-2.72,.14-3.3-.89-3.28-3.41,.11-12.43,.19-24.87,0-37.3-.13-8.12-3.26-14.89-11.11-18.35-11.26-4.98-23.48,3.62-23.86,17-.36,12.67-.21,25.36-.08,38.04,.03,3-.64,4.23-3.89,4.02-4.22-.28-8.48-.16-12.72-.02-2.31,.08-2.97-.72-2.92-3,.15-6.71,.05-13.43,.05-21.7Z"/><path class="cls-1" d="M456.91,69.78c.32-2.5-1.36-6.44,.63-8.41,1.97-1.96,5.92-.54,8.99-.6,5.93-.13,9.15-2.32,11.4-8.22,3.71-9.74,7.2-19.56,11.1-29.22,5.19-12.85,14.82-19.85,28.8-20.58,3.36-.17,6.73,.03,10.09-.06,1.94-.05,2.65,.73,2.62,2.63-.07,4.72-.07,9.44,.03,14.15,.04,1.89-.54,2.71-2.54,2.63-2.99-.12-5.98-.05-8.97-.02-5.9,.05-9.79,2.7-11.93,8.31-3.71,9.73-7.48,19.45-10.99,29.26-3.91,10.92-15.54,21.42-30.2,20.62-9.01-.5-9.03-.09-9.03-9.17,0-.25,0-.5,0-1.31Z"/><path class="cls-1" d="M264.56,77c-6.88-4.6-11.36-11.02-14.07-18.72-5.25-14.91-10.45-29.83-15.66-44.75-1.06-3.04-2.09-6.1-3.14-9.14-.37-1.09-.93-2.32,1.03-2.26,6.33,.2,12.68-.52,18.99,.4,5.99,17.31,11.9,34.64,18.01,51.91,1.9,5.38,3.75,6.35,9.55,6.33,2.74-.01,5.48,.05,8.21-.03,1.63-.05,2.55,.28,2.51,2.21-.1,4.96-.12,9.92,0,14.88,.06,2.21-1.16,2.25-2.8,2.34-7.75,.41-15.34-.26-22.62-3.16Z"/><path class="cls-1" d="M205.1,80.13c-6.11-.42-13.58,.53-21.05-.62-21.97-3.38-33.81-24.61-31.49-43.23,1.51-12.13,7.69-21.33,17.65-28.58,6.14-4.46,12.9-5.28,19.85-5.85,5.45-.45,10.97-.18,16.46-.07,14.51,.31,23.72,10.14,23.61,25.08-.1,14.05-9.8,23.83-23.92,24.01-7.23,.09-14.47-.05-21.7,.04-2.38,.03-3.29-.68-3.17-3.2,.22-4.46,.22-8.95,.02-13.42-.11-2.54,.85-3.11,3.2-3.07,6.98,.13,13.97,.09,20.96,.03,4.27-.04,5.12-.95,5.08-5.04-.04-4.1-.89-4.96-5.13-4.99-4.62-.04-9.23-.08-13.85,0-11.48,.22-19.6,8.5-19.69,19.99-.09,10.84,8.49,19.29,19.87,19.4,10.6,.1,21.21,.18,31.81-.06,3.44-.08,4.26,1.03,4.06,4.21-.27,4.21-.15,8.45-.04,12.67,.06,2.14-.76,2.77-2.84,2.73-6.11-.11-12.22-.04-19.69-.04Z"/><path class="cls-1" d="M116.45,31.54c-.85-6.95-3.9-9.74-10.48-9.76-8.11-.03-16.22-.19-24.32,.08-3.42,.11-4.31-1.01-4.11-4.21,.25-4.21,.13-8.45,.02-12.68-.04-1.64,.38-2.81,2.11-2.76,10.96,.27,22.03-1.18,32.86,.73,10.16,1.79,17.41,8.34,21.05,17.76,6.35,16.43,11.94,33.16,17.87,49.75,1.1,3.07,2.51,6.05,2.87,9.67-6.24,0-12.45-.05-18.67,.03-1.98,.03-2.08-1.4-2.52-2.64-2.75-7.85-5.57-15.67-8.19-23.56-.75-2.27-1.88-3.05-4.29-3.01-8.23,.14-16.47,.03-24.7,.06-3.88,.01-5.25,1.27-5.26,4.61,0,3.73,1.25,4.99,5.26,5.02,7.48,.05,14.97,.16,22.45-.06,2.91-.09,3.62,.88,3.5,3.58-.2,4.47-.13,8.95-.05,13.42,.03,1.89-.57,2.62-2.57,2.59-8.73-.12-17.47,.14-26.19-.18-12.64-.48-22.11-11.19-22.08-24.5,.03-13.09,9.86-23.59,22.62-23.92,7.59-.19,15.18-.04,22.81-.04Z"/><path class="cls-1" d="M73.6,13c-.37,2.52,1.36,6.41-.67,8.43-1.86,1.86-5.7,.49-8.65,.53-8.86,.13-11.87,2.17-15.01,10.5-3.32,8.82-6.55,17.67-9.92,26.48-5.43,14.2-15.69,21.2-30.85,21.18Q.05,80.11,.05,71.56c0-2.61,.1-5.22-.04-7.83-.11-2.19,.54-3.22,2.92-3.01,2.1,.18,4.24,.05,6.36,.04,6.34-.02,9.59-2.41,11.93-8.65,3.7-9.87,7.14-19.85,11.24-29.55C37.79,9.96,47.51,3.19,61.41,2.8c3.24-.09,6.49,.1,9.73-.03,2.01-.08,2.6,.71,2.49,2.61-.13,2.35-.03,4.72-.03,7.62Z"/></g></g></svg>